<?xml version="1.0" standalone="no"?>
<!DOCTYPE svg PUBLIC "-//W3C//DTD SVG 20010904//EN"
 "http://www.w3.org/TR/2001/REC-SVG-20010904/DTD/svg10.dtd">
<svg version="1.0" xmlns="http://www.w3.org/2000/svg"
 width="512.000000pt" height="512.000000pt" viewBox="0 0 512.000000 512.000000"
 preserveAspectRatio="xMidYMid meet">
<metadata>
Created by potrace 1.14, written by Peter Selinger 2001-2017
</metadata>
<g transform="translate(0.000000,512.000000) scale(0.100000,-0.100000)"
fill="#000000" stroke="none">
<path d="M2355 4553 c-386 -49 -695 -170 -990 -388 -379 -280 -665 -721 -761
-1178 -33 -156 -39 -222 -39 -427 0 -216 5 -264 44 -450 53 -247 182 -525 343
-741 83 -111 76 -103 198 -226 185 -186 400 -331 634 -428 109 -45 237 -87
309 -101 10 -2 26 -5 35 -8 9 -3 35 -8 57 -12 22 -3 42 -7 46 -9 29 -19 453
-27 579 -12 137 17 354 73 490 126 56 23 218 101 255 124 241 148 371 257 532
445 171 199 303 441 388 712 13 41 26 86 29 100 3 14 12 57 20 96 25 113 31
186 31 379 0 211 -6 279 -41 435 -181 805 -817 1409 -1629 1545 -16 3 -43 8
-60 11 -35 7 -425 13 -470 7z"/>
</g>
</svg>
